<svg xmlns="http://www.w3.org/2000/svg" xmlns:xlink="http://www.w3.org/1999/xlink" width="600" zoomAndPan="magnify" viewBox="0 0 450 187.499995" height="250" preserveAspectRatio="xMidYMid meet" version="1.0"><defs><g/><clipPath id="1e56238f14"><path d="M 66 27 L 139.726562 27 L 139.726562 159.324219 L 66 159.324219 Z M 66 27 " clip-rule="nonzero"/></clipPath><clipPath id="f480b2d383"><path d="M 5.449219 25.046875 L 80 25.046875 L 80 158 L 5.449219 158 Z M 5.449219 25.046875 " clip-rule="nonzero"/></clipPath></defs><g clip-path="url(#1e56238f14)"><path fill="#008037" d="M 104.066406 47.683594 C 118.132812 57.5625 127.34375 73.910156 127.34375 92.367188 C 127.34375 122.460938 102.863281 146.941406 72.769531 146.941406 C 70.613281 146.941406 68.488281 146.816406 66.398438 146.570312 L 66.398438 159.390625 C 68.503906 159.585938 70.628906 159.6875 72.769531 159.6875 C 81.855469 159.6875 90.671875 157.90625 98.976562 154.394531 C 106.992188 151.003906 114.191406 146.148438 120.371094 139.96875 C 126.550781 133.789062 131.40625 126.589844 134.796875 118.574219 C 138.308594 110.269531 140.089844 101.453125 140.089844 92.367188 C 140.089844 83.28125 138.308594 74.464844 134.796875 66.160156 C 131.40625 58.144531 126.550781 50.945312 120.371094 44.765625 C 114.191406 38.582031 106.992188 33.730469 98.976562 30.339844 C 96.46875 29.277344 93.914062 28.378906 91.320312 27.632812 L 91.320312 96.773438 L 104.066406 96.773438 L 104.066406 47.683594 " fill-opacity="1" fill-rule="nonzero"/></g><path fill="#ff1616" d="M 79.140625 57.191406 L 66.398438 57.191406 L 66.398438 127.539062 L 79.140625 127.539062 L 79.140625 57.191406 " fill-opacity="1" fill-rule="nonzero"/><g clip-path="url(#f480b2d383)"><path fill="#f9fffe" d="M 10.742188 118.574219 C 14.132812 126.589844 18.988281 133.789062 25.167969 139.96875 C 31.347656 146.148438 38.546875 151.003906 46.5625 154.394531 C 49.070312 155.453125 51.625 156.355469 54.21875 157.097656 L 54.21875 87.960938 L 41.472656 87.960938 L 41.472656 137.050781 C 27.40625 127.171875 18.195312 110.824219 18.195312 92.367188 C 18.195312 62.273438 42.675781 37.792969 72.769531 37.792969 C 74.925781 37.792969 77.050781 37.917969 79.140625 38.164062 L 79.140625 25.34375 C 77.035156 25.148438 74.910156 25.046875 72.769531 25.046875 C 63.683594 25.046875 54.867188 26.828125 46.5625 30.339844 C 38.546875 33.730469 31.347656 38.582031 25.167969 44.765625 C 18.988281 50.945312 14.132812 58.144531 10.742188 66.160156 C 7.230469 74.464844 5.449219 83.28125 5.449219 92.367188 C 5.449219 101.453125 7.230469 110.269531 10.742188 118.574219 " fill-opacity="1" fill-rule="nonzero"/></g><g fill="#ffffff" fill-opacity="1"><g transform="translate(146.221244, 81.883325)"><g><path d="M 12.953125 -32.96875 L 1.171875 -32.96875 L 1.171875 -41.203125 L 33.546875 -41.203125 L 33.546875 -32.96875 L 21.78125 -32.96875 L 21.78125 0 L 12.953125 0 Z M 12.953125 -32.96875 "/></g></g></g><g fill="#ffffff" fill-opacity="1"><g transform="translate(179.765003, 81.883325)"><g><path d="M 5.296875 -41.203125 L 23.546875 -41.203125 C 25.742188 -41.203125 27.734375 -40.867188 29.515625 -40.203125 C 31.304688 -39.535156 32.828125 -38.59375 34.078125 -37.375 C 35.335938 -36.15625 36.300781 -34.691406 36.96875 -32.984375 C 37.632812 -31.285156 37.96875 -29.414062 37.96875 -27.375 C 37.96875 -25.019531 37.601562 -23.054688 36.875 -21.484375 C 36.144531 -19.910156 35.332031 -18.675781 34.4375 -17.78125 C 33.414062 -16.71875 32.238281 -15.890625 30.90625 -15.296875 L 39.4375 0 L 29.71875 0 L 22.359375 -13.53125 L 14.125 -13.53125 L 14.125 0 L 5.296875 0 Z M 23.25 -21.78125 C 24.894531 -21.78125 26.238281 -22.296875 27.28125 -23.328125 C 28.320312 -24.367188 28.84375 -25.71875 28.84375 -27.375 C 28.84375 -29.019531 28.320312 -30.363281 27.28125 -31.40625 C 26.238281 -32.445312 24.894531 -32.96875 23.25 -32.96875 L 14.125 -32.96875 L 14.125 -21.78125 Z M 23.25 -21.78125 "/></g></g></g><g fill="#ffffff" fill-opacity="1"><g transform="translate(220.076428, 81.883325)"><g><path d="M 16.1875 -41.203125 L 26.1875 -41.203125 L 42.078125 0 L 32.671875 0 L 29.140625 -9.421875 L 13.25 -9.421875 L 9.71875 0 L 0.296875 0 Z M 26.1875 -17.359375 L 21.3125 -30.90625 L 21.078125 -30.90625 L 16.1875 -17.359375 Z M 26.1875 -17.359375 "/></g></g></g><g fill="#ffffff" fill-opacity="1"><g transform="translate(261.270588, 81.883325)"><g><path d="M 5.296875 -41.203125 L 20.3125 -41.203125 C 23.488281 -41.203125 26.398438 -40.660156 29.046875 -39.578125 C 31.691406 -38.503906 33.984375 -37.046875 35.921875 -35.203125 C 37.867188 -33.359375 39.378906 -31.175781 40.453125 -28.65625 C 41.535156 -26.144531 42.078125 -23.457031 42.078125 -20.59375 C 42.078125 -17.726562 41.535156 -15.039062 40.453125 -12.53125 C 39.378906 -10.019531 37.867188 -7.84375 35.921875 -6 C 33.984375 -4.15625 31.691406 -2.691406 29.046875 -1.609375 C 26.398438 -0.535156 23.488281 0 20.3125 0 L 5.296875 0 Z M 20.3125 -8.234375 C 22.15625 -8.234375 23.847656 -8.546875 25.390625 -9.171875 C 26.941406 -9.804688 28.273438 -10.671875 29.390625 -11.765625 C 30.515625 -12.867188 31.390625 -14.175781 32.015625 -15.6875 C 32.648438 -17.195312 32.96875 -18.832031 32.96875 -20.59375 C 32.96875 -22.363281 32.648438 -24.003906 32.015625 -25.515625 C 31.390625 -27.023438 30.515625 -28.328125 29.390625 -29.421875 C 28.273438 -30.523438 26.941406 -31.390625 25.390625 -32.015625 C 23.847656 -32.648438 22.15625 -32.96875 20.3125 -32.96875 L 14.125 -32.96875 L 14.125 -8.234375 Z M 20.3125 -8.234375 "/></g></g></g><g fill="#ffffff" fill-opacity="1"><g transform="translate(304.818713, 81.883325)"><g><path d="M 5.296875 -41.203125 L 14.125 -41.203125 L 14.125 0 L 5.296875 0 Z M 5.296875 -41.203125 "/></g></g></g><g fill="#ffffff" fill-opacity="1"><g transform="translate(323.061699, 81.883325)"><g><path d="M 5.296875 -41.203125 L 13.25 -41.203125 L 33.25 -15.59375 L 33.25 -41.203125 L 42.078125 -41.203125 L 42.078125 0 L 34.140625 0 L 14.125 -25.609375 L 14.125 0 L 5.296875 0 Z M 5.296875 -41.203125 "/></g></g></g><g fill="#ffffff" fill-opacity="1"><g transform="translate(369.258024, 81.883325)"><g><path d="M 25.015625 0.890625 C 21.835938 0.890625 18.882812 0.320312 16.15625 -0.8125 C 13.425781 -1.957031 11.0625 -3.5 9.0625 -5.4375 C 7.0625 -7.382812 5.492188 -9.660156 4.359375 -12.265625 C 3.222656 -14.878906 2.65625 -17.65625 2.65625 -20.59375 C 2.65625 -23.539062 3.222656 -26.316406 4.359375 -28.921875 C 5.492188 -31.535156 7.0625 -33.8125 9.0625 -35.75 C 11.0625 -37.695312 13.425781 -39.238281 16.15625 -40.375 C 18.882812 -41.507812 21.835938 -42.078125 25.015625 -42.078125 C 27.878906 -42.078125 30.398438 -41.644531 32.578125 -40.78125 C 34.753906 -39.925781 36.566406 -38.988281 38.015625 -37.96875 C 39.703125 -36.75 41.15625 -35.375 42.375 -33.84375 L 36.5 -27.953125 C 35.632812 -29.054688 34.628906 -30.039062 33.484375 -30.90625 C 32.503906 -31.644531 31.304688 -32.316406 29.890625 -32.921875 C 28.484375 -33.535156 26.859375 -33.84375 25.015625 -33.84375 C 23.171875 -33.84375 21.441406 -33.5 19.828125 -32.8125 C 18.222656 -32.125 16.820312 -31.179688 15.625 -29.984375 C 14.425781 -28.785156 13.484375 -27.378906 12.796875 -25.765625 C 12.109375 -24.160156 11.765625 -22.4375 11.765625 -20.59375 C 11.765625 -18.75 12.109375 -17.023438 12.796875 -15.421875 C 13.484375 -13.816406 14.425781 -12.414062 15.625 -11.21875 C 16.820312 -10.019531 18.222656 -9.078125 19.828125 -8.390625 C 21.441406 -7.703125 23.171875 -7.359375 25.015625 -7.359375 C 26.503906 -7.359375 27.804688 -7.515625 28.921875 -7.828125 C 30.046875 -8.140625 31 -8.515625 31.78125 -8.953125 C 32.6875 -9.421875 33.472656 -9.96875 34.140625 -10.59375 L 34.140625 -15.59375 L 26.484375 -15.59375 L 26.484375 -22.65625 L 42.96875 -22.65625 L 42.96875 -7.0625 C 41.675781 -5.570312 40.144531 -4.238281 38.375 -3.0625 C 36.882812 -2.039062 35.019531 -1.125 32.78125 -0.3125 C 30.539062 0.488281 27.953125 0.890625 25.015625 0.890625 Z M 25.015625 0.890625 "/></g></g></g><g fill="#ffffff" fill-opacity="1"><g transform="translate(146.221244, 139.969993)"><g><path d="M 25.015625 0.890625 C 21.835938 0.890625 18.882812 0.320312 16.15625 -0.8125 C 13.425781 -1.957031 11.0625 -3.5 9.0625 -5.4375 C 7.0625 -7.382812 5.492188 -9.660156 4.359375 -12.265625 C 3.222656 -14.878906 2.65625 -17.65625 2.65625 -20.59375 C 2.65625 -23.539062 3.222656 -26.316406 4.359375 -28.921875 C 5.492188 -31.535156 7.0625 -33.8125 9.0625 -35.75 C 11.0625 -37.695312 13.425781 -39.238281 16.15625 -40.375 C 18.882812 -41.507812 21.835938 -42.078125 25.015625 -42.078125 C 27.878906 -42.078125 30.398438 -41.644531 32.578125 -40.78125 C 34.753906 -39.925781 36.566406 -38.988281 38.015625 -37.96875 C 39.703125 -36.75 41.15625 -35.375 42.375 -33.84375 L 36.5 -27.953125 C 35.632812 -29.054688 34.628906 -30.039062 33.484375 -30.90625 C 32.503906 -31.644531 31.304688 -32.316406 29.890625 -32.921875 C 28.484375 -33.535156 26.859375 -33.84375 25.015625 -33.84375 C 23.171875 -33.84375 21.441406 -33.5 19.828125 -32.8125 C 18.222656 -32.125 16.820312 -31.179688 15.625 -29.984375 C 14.425781 -28.785156 13.484375 -27.378906 12.796875 -25.765625 C 12.109375 -24.160156 11.765625 -22.4375 11.765625 -20.59375 C 11.765625 -18.75 12.109375 -17.023438 12.796875 -15.421875 C 13.484375 -13.816406 14.425781 -12.414062 15.625 -11.21875 C 16.820312 -10.019531 18.222656 -9.078125 19.828125 -8.390625 C 21.441406 -7.703125 23.171875 -7.359375 25.015625 -7.359375 C 26.941406 -7.359375 28.628906 -7.660156 30.078125 -8.265625 C 31.523438 -8.878906 32.757812 -9.554688 33.78125 -10.296875 C 34.957031 -11.160156 35.957031 -12.144531 36.78125 -13.25 L 42.671875 -7.359375 C 41.453125 -5.828125 39.984375 -4.453125 38.265625 -3.234375 C 36.765625 -2.210938 34.914062 -1.269531 32.71875 -0.40625 C 30.519531 0.457031 27.953125 0.890625 25.015625 0.890625 Z M 25.015625 0.890625 "/></g></g></g><g fill="#ffffff" fill-opacity="1"><g transform="translate(188.886621, 139.969993)"><g><path d="M 25.015625 0.890625 C 21.835938 0.890625 18.882812 0.320312 16.15625 -0.8125 C 13.425781 -1.957031 11.0625 -3.5 9.0625 -5.4375 C 7.0625 -7.382812 5.492188 -9.660156 4.359375 -12.265625 C 3.222656 -14.878906 2.65625 -17.65625 2.65625 -20.59375 C 2.65625 -23.539062 3.222656 -26.316406 4.359375 -28.921875 C 5.492188 -31.535156 7.0625 -33.8125 9.0625 -35.75 C 11.0625 -37.695312 13.425781 -39.238281 16.15625 -40.375 C 18.882812 -41.507812 21.835938 -42.078125 25.015625 -42.078125 C 28.191406 -42.078125 31.144531 -41.507812 33.875 -40.375 C 36.601562 -39.238281 38.96875 -37.695312 40.96875 -35.75 C 42.96875 -33.8125 44.535156 -31.535156 45.671875 -28.921875 C 46.804688 -26.316406 47.375 -23.539062 47.375 -20.59375 C 47.375 -17.65625 46.804688 -14.878906 45.671875 -12.265625 C 44.535156 -9.660156 42.96875 -7.382812 40.96875 -5.4375 C 38.96875 -3.5 36.601562 -1.957031 33.875 -0.8125 C 31.144531 0.320312 28.191406 0.890625 25.015625 0.890625 Z M 25.015625 -7.359375 C 26.859375 -7.359375 28.582031 -7.703125 30.1875 -8.390625 C 31.800781 -9.078125 33.207031 -10.019531 34.40625 -11.21875 C 35.601562 -12.414062 36.546875 -13.816406 37.234375 -15.421875 C 37.921875 -17.023438 38.265625 -18.75 38.265625 -20.59375 C 38.265625 -22.4375 37.921875 -24.160156 37.234375 -25.765625 C 36.546875 -27.378906 35.601562 -28.785156 34.40625 -29.984375 C 33.207031 -31.179688 31.800781 -32.125 30.1875 -32.8125 C 28.582031 -33.5 26.859375 -33.84375 25.015625 -33.84375 C 23.171875 -33.84375 21.441406 -33.5 19.828125 -32.8125 C 18.222656 -32.125 16.820312 -31.179688 15.625 -29.984375 C 14.425781 -28.785156 13.484375 -27.378906 12.796875 -25.765625 C 12.109375 -24.160156 11.765625 -22.4375 11.765625 -20.59375 C 11.765625 -18.75 12.109375 -17.023438 12.796875 -15.421875 C 13.484375 -13.816406 14.425781 -12.414062 15.625 -11.21875 C 16.820312 -10.019531 18.222656 -9.078125 19.828125 -8.390625 C 21.441406 -7.703125 23.171875 -7.359375 25.015625 -7.359375 Z M 25.015625 -7.359375 "/></g></g></g><g fill="#ffffff" fill-opacity="1"><g transform="translate(237.73117, 139.969993)"><g><path d="M 5.296875 -41.203125 L 13.25 -41.203125 L 27.375 -23.546875 L 41.5 -41.203125 L 49.4375 -41.203125 L 49.4375 0 L 40.609375 0 L 40.609375 -27.078125 L 27.375 -10.59375 L 14.125 -27.078125 L 14.125 0 L 5.296875 0 Z M 5.296875 -41.203125 "/></g></g></g><g fill="#ffffff" fill-opacity="1"><g transform="translate(291.283655, 139.969993)"><g><path d="M 5.296875 -41.203125 L 22.65625 -41.203125 C 24.851562 -41.203125 26.851562 -40.859375 28.65625 -40.171875 C 30.46875 -39.484375 32.019531 -38.519531 33.3125 -37.28125 C 34.601562 -36.050781 35.601562 -34.59375 36.3125 -32.90625 C 37.019531 -31.21875 37.375 -29.375 37.375 -27.375 C 37.375 -25.375 37.019531 -23.53125 36.3125 -21.84375 C 35.601562 -20.15625 34.601562 -18.691406 33.3125 -17.453125 C 32.019531 -16.210938 30.46875 -15.25 28.65625 -14.5625 C 26.851562 -13.875 24.851562 -13.53125 22.65625 -13.53125 L 14.125 -13.53125 L 14.125 0 L 5.296875 0 Z M 22.359375 -21.78125 C 24.128906 -21.78125 25.550781 -22.296875 26.625 -23.328125 C 27.707031 -24.367188 28.25 -25.71875 28.25 -27.375 C 28.25 -29.019531 27.707031 -30.363281 26.625 -31.40625 C 25.550781 -32.445312 24.128906 -32.96875 22.359375 -32.96875 L 14.125 -32.96875 L 14.125 -21.78125 Z M 22.359375 -21.78125 "/></g></g></g><g fill="#ffffff" fill-opacity="1"><g transform="translate(330.123849, 139.969993)"><g><path d="M 16.1875 -41.203125 L 26.1875 -41.203125 L 42.078125 0 L 32.671875 0 L 29.140625 -9.421875 L 13.25 -9.421875 L 9.71875 0 L 0.296875 0 Z M 26.1875 -17.359375 L 21.3125 -30.90625 L 21.078125 -30.90625 L 16.1875 -17.359375 Z M 26.1875 -17.359375 "/></g></g></g><g fill="#ffffff" fill-opacity="1"><g transform="translate(371.317999, 139.969993)"><g><path d="M 17.0625 0.890625 C 14.394531 0.890625 12.070312 0.554688 10.09375 -0.109375 C 8.113281 -0.785156 6.457031 -1.535156 5.125 -2.359375 C 3.550781 -3.296875 2.234375 -4.375 1.171875 -5.59375 L 7.0625 -11.484375 C 7.769531 -10.648438 8.613281 -9.898438 9.59375 -9.234375 C 10.414062 -8.691406 11.425781 -8.191406 12.625 -7.734375 C 13.820312 -7.285156 15.207031 -7.0625 16.78125 -7.0625 C 19.132812 -7.0625 20.847656 -7.507812 21.921875 -8.40625 C 23.003906 -9.3125 23.546875 -10.429688 23.546875 -11.765625 C 23.546875 -12.941406 23.035156 -13.875 22.015625 -14.5625 C 20.992188 -15.25 19.71875 -15.867188 18.1875 -16.421875 C 16.65625 -16.972656 15.003906 -17.539062 13.234375 -18.125 C 11.472656 -18.71875 9.828125 -19.492188 8.296875 -20.453125 C 6.765625 -21.410156 5.488281 -22.644531 4.46875 -24.15625 C 3.445312 -25.664062 2.9375 -27.617188 2.9375 -30.015625 C 2.9375 -31.628906 3.28125 -33.171875 3.96875 -34.640625 C 4.65625 -36.109375 5.632812 -37.390625 6.90625 -38.484375 C 8.1875 -39.585938 9.757812 -40.460938 11.625 -41.109375 C 13.488281 -41.753906 15.597656 -42.078125 17.953125 -42.078125 C 20.222656 -42.078125 22.234375 -41.78125 23.984375 -41.1875 C 25.734375 -40.601562 27.175781 -39.960938 28.3125 -39.265625 C 29.644531 -38.429688 30.800781 -37.507812 31.78125 -36.5 L 25.890625 -30.609375 C 25.265625 -31.273438 24.582031 -31.863281 23.84375 -32.375 C 23.175781 -32.800781 22.367188 -33.203125 21.421875 -33.578125 C 20.484375 -33.953125 19.425781 -34.140625 18.25 -34.140625 C 16.007812 -34.140625 14.414062 -33.742188 13.46875 -32.953125 C 12.53125 -32.171875 12.0625 -31.191406 12.0625 -30.015625 C 12.0625 -28.835938 12.570312 -27.90625 13.59375 -27.21875 C 14.613281 -26.53125 15.890625 -25.910156 17.421875 -25.359375 C 18.953125 -24.816406 20.597656 -24.25 22.359375 -23.65625 C 24.128906 -23.070312 25.78125 -22.296875 27.3125 -21.328125 C 28.84375 -20.367188 30.117188 -19.132812 31.140625 -17.625 C 32.160156 -16.113281 32.671875 -14.160156 32.671875 -11.765625 C 32.671875 -10.078125 32.316406 -8.46875 31.609375 -6.9375 C 30.898438 -5.414062 29.867188 -4.070312 28.515625 -2.90625 C 27.160156 -1.75 25.519531 -0.828125 23.59375 -0.140625 C 21.675781 0.546875 19.5 0.890625 17.0625 0.890625 Z M 17.0625 0.890625 "/></g></g></g><g fill="#ffffff" fill-opacity="1"><g transform="translate(404.56751, 139.969993)"><g><path d="M 17.0625 0.890625 C 14.394531 0.890625 12.070312 0.554688 10.09375 -0.109375 C 8.113281 -0.785156 6.457031 -1.535156 5.125 -2.359375 C 3.550781 -3.296875 2.234375 -4.375 1.171875 -5.59375 L 7.0625 -11.484375 C 7.769531 -10.648438 8.613281 -9.898438 9.59375 -9.234375 C 10.414062 -8.691406 11.425781 -8.191406 12.625 -7.734375 C 13.820312 -7.285156 15.207031 -7.0625 16.78125 -7.0625 C 19.132812 -7.0625 20.847656 -7.507812 21.921875 -8.40625 C 23.003906 -9.3125 23.546875 -10.429688 23.546875 -11.765625 C 23.546875 -12.941406 23.035156 -13.875 22.015625 -14.5625 C 20.992188 -15.25 19.71875 -15.867188 18.1875 -16.421875 C 16.65625 -16.972656 15.003906 -17.539062 13.234375 -18.125 C 11.472656 -18.71875 9.828125 -19.492188 8.296875 -20.453125 C 6.765625 -21.410156 5.488281 -22.644531 4.46875 -24.15625 C 3.445312 -25.664062 2.9375 -27.617188 2.9375 -30.015625 C 2.9375 -31.628906 3.28125 -33.171875 3.96875 -34.640625 C 4.65625 -36.109375 5.632812 -37.390625 6.90625 -38.484375 C 8.1875 -39.585938 9.757812 -40.460938 11.625 -41.109375 C 13.488281 -41.753906 15.597656 -42.078125 17.953125 -42.078125 C 20.222656 -42.078125 22.234375 -41.78125 23.984375 -41.1875 C 25.734375 -40.601562 27.175781 -39.960938 28.3125 -39.265625 C 29.644531 -38.429688 30.800781 -37.507812 31.78125 -36.5 L 25.890625 -30.609375 C 25.265625 -31.273438 24.582031 -31.863281 23.84375 -32.375 C 23.175781 -32.800781 22.367188 -33.203125 21.421875 -33.578125 C 20.484375 -33.953125 19.425781 -34.140625 18.25 -34.140625 C 16.007812 -34.140625 14.414062 -33.742188 13.46875 -32.953125 C 12.53125 -32.171875 12.0625 -31.191406 12.0625 -30.015625 C 12.0625 -28.835938 12.570312 -27.90625 13.59375 -27.21875 C 14.613281 -26.53125 15.890625 -25.910156 17.421875 -25.359375 C 18.953125 -24.816406 20.597656 -24.25 22.359375 -23.65625 C 24.128906 -23.070312 25.78125 -22.296875 27.3125 -21.328125 C 28.84375 -20.367188 30.117188 -19.132812 31.140625 -17.625 C 32.160156 -16.113281 32.671875 -14.160156 32.671875 -11.765625 C 32.671875 -10.078125 32.316406 -8.46875 31.609375 -6.9375 C 30.898438 -5.414062 29.867188 -4.070312 28.515625 -2.90625 C 27.160156 -1.75 25.519531 -0.828125 23.59375 -0.140625 C 21.675781 0.546875 19.5 0.890625 17.0625 0.890625 Z M 17.0625 0.890625 "/></g></g></g></svg>